<svg width="538" height="401" viewBox="0 0 538 401" fill="none" xmlns="http://www.w3.org/2000/svg">
<path d="M537.079 352.023H0.90007V352.292H537.079V352.023Z" fill="#EBEBEB"/>
<path d="M483.354 369.278H447.838V369.546H483.354V369.278Z" fill="#EBEBEB"/>
<path d="M356.087 372.195H346.768V372.463H356.087V372.195Z" fill="#EBEBEB"/>
<path d="M446.765 359.326H426.187V359.594H446.765V359.326Z" fill="#EBEBEB"/>
<path d="M103.471 361.128H57.156V361.396H103.471V361.128Z" fill="#EBEBEB"/>
<path d="M119.814 361.128H113.026V361.396H119.814V361.128Z" fill="#EBEBEB"/>
<path d="M242.342 365.653H141.883V365.921H242.342V365.653Z" fill="#EBEBEB"/>
<path d="M255.049 304.196H47.9873C46.3652 304.193 44.8105 303.547 43.6645 302.399C42.5185 301.251 41.8749 299.695 41.8749 298.073V7.00293C41.889 5.39013 42.5389 3.84803 43.6833 2.71158C44.8278 1.57514 46.3745 0.936143 47.9873 0.93338H255.049C256.673 0.93338 258.23 1.5785 259.379 2.72681C260.527 3.87513 261.172 5.43258 261.172 7.05654V298.073C261.172 299.697 260.527 301.255 259.379 302.403C258.23 303.551 256.673 304.196 255.049 304.196V304.196ZM47.9873 1.14785C46.4363 1.15069 44.9498 1.76882 43.8541 2.86655C42.7584 3.96428 42.143 5.45192 42.143 7.00293V298.073C42.143 299.624 42.7584 301.112 43.8541 302.209C44.9498 303.307 46.4363 303.925 47.9873 303.928H255.049C256.601 303.925 258.089 303.308 259.186 302.21C260.283 301.113 260.901 299.625 260.904 298.073V7.00293C260.901 5.45094 260.283 3.96332 259.186 2.86589C258.089 1.76847 256.601 1.15069 255.049 1.14785H47.9873Z" fill="#EBEBEB"/>
<path d="M487.011 304.196H279.938C278.315 304.193 276.76 303.547 275.612 302.4C274.464 301.252 273.818 299.696 273.815 298.073V7.00293C273.832 5.38915 274.484 3.84706 275.631 2.71091C276.777 1.57477 278.325 0.936113 279.938 0.93338H487.011C488.622 0.938961 490.166 1.57921 491.308 2.71535C492.45 3.85149 493.098 5.39198 493.113 7.00293V298.073C493.113 299.693 492.47 301.248 491.327 302.395C490.183 303.543 488.631 304.191 487.011 304.196V304.196ZM279.938 1.14785C278.386 1.15069 276.899 1.76847 275.801 2.86589C274.704 3.96332 274.086 5.45094 274.083 7.00293V298.073C274.086 299.625 274.704 301.113 275.801 302.21C276.899 303.308 278.386 303.925 279.938 303.928H487.011C488.563 303.925 490.05 303.308 491.148 302.21C492.245 301.113 492.863 299.625 492.866 298.073V7.00293C492.863 5.45094 492.245 3.96332 491.148 2.86589C490.05 1.76847 488.563 1.15069 487.011 1.14785H279.938Z" fill="#EBEBEB"/>
<path d="M299.241 350.983H460.32L460.32 114.818L299.241 114.818V350.983Z" fill="#F0F0F0"/>
<path d="M304.935 165.873L454.626 165.873V122.26L304.935 122.26V165.873Z" fill="#E0E0E0"/>
<path d="M446.111 165.873H454.615V129.316H446.111V165.873Z" fill="#EBEBEB"/>
<path d="M404.997 165.873H413.501V129.316H404.997V165.873Z" fill="#EBEBEB"/>
<path d="M352.123 164.415L360.503 165.86L366.713 129.834L358.333 128.39L352.123 164.415Z" fill="#EBEBEB"/>
<path d="M435.58 165.873H444.084V134.131H435.58V165.873Z" fill="#EBEBEB"/>
<path d="M416.042 165.873H424.546V134.131H416.042V165.873Z" fill="#EBEBEB"/>
<path d="M366.703 165.873H375.207V134.131H366.703V165.873Z" fill="#EBEBEB"/>
<path d="M386.958 164.017L395.259 165.861L402.146 134.876L393.845 133.031L386.958 164.017Z" fill="#EBEBEB"/>
<path d="M428.235 165.873H432.481V127.504H428.235V165.873Z" fill="#EBEBEB"/>
<path d="M377.652 165.873H381.898V127.504H377.652V165.873Z" fill="#EBEBEB"/>
<path d="M454.615 172.779H304.924V216.392H454.615V172.779Z" fill="#E0E0E0"/>
<path d="M313.428 179.846H304.924V216.402H313.428V179.846Z" fill="#EBEBEB"/>
<path d="M354.553 179.846H346.049V216.402H354.553V179.846Z" fill="#EBEBEB"/>
<path d="M401.235 178.909L392.854 180.354L399.064 216.379L407.444 214.935L401.235 178.909Z" fill="#EBEBEB"/>
<path d="M323.969 184.661H315.466V216.402H323.969V184.661Z" fill="#EBEBEB"/>
<path d="M343.519 184.661H335.015V216.402H343.519V184.661Z" fill="#EBEBEB"/>
<path d="M392.847 184.661H384.343V216.402H392.847V184.661Z" fill="#EBEBEB"/>
<path d="M365.727 183.542L357.426 185.387L364.312 216.373L372.614 214.528L365.727 183.542Z" fill="#EBEBEB"/>
<path d="M331.315 178.023H327.069V216.392H331.315V178.023Z" fill="#EBEBEB"/>
<path d="M381.898 178.023H377.652V216.392H381.898V178.023Z" fill="#EBEBEB"/>
<path d="M446.111 216.392H454.615V179.835H446.111V216.392Z" fill="#EBEBEB"/>
<path d="M435.58 216.392H444.084V184.65H435.58V216.392Z" fill="#EBEBEB"/>
<path d="M416.042 216.392H424.546V184.65H416.042V216.392Z" fill="#EBEBEB"/>
<path d="M428.235 216.402H432.481V178.033H428.235V216.402Z" fill="#EBEBEB"/>
<path d="M304.935 266.921H454.626V223.308L304.935 223.308V266.921Z" fill="#E0E0E0"/>
<path d="M360.194 266.921H368.698V230.364H360.194V266.921Z" fill="#EBEBEB"/>
<path d="M307.33 265.471L315.71 266.915L321.92 230.89L313.539 229.445L307.33 265.471Z" fill="#EBEBEB"/>
<path d="M390.777 266.921H399.281V235.179H390.777V266.921Z" fill="#EBEBEB"/>
<path d="M371.228 266.921H379.732V235.179H371.228V266.921Z" fill="#EBEBEB"/>
<path d="M321.9 266.921H330.404V235.179H321.9V266.921Z" fill="#EBEBEB"/>
<path d="M342.153 265.061L350.455 266.906L357.341 235.92L349.04 234.075L342.153 265.061Z" fill="#EBEBEB"/>
<path d="M383.432 266.921H387.678V228.552H383.432V266.921Z" fill="#EBEBEB"/>
<path d="M332.849 266.921H337.095V228.552H332.849V266.921Z" fill="#EBEBEB"/>
<path d="M405.156 265.463L413.537 266.908L419.746 230.882L411.366 229.438L405.156 265.463Z" fill="#EBEBEB"/>
<path d="M419.731 266.921H428.235V235.179H419.731V266.921Z" fill="#EBEBEB"/>
<path d="M439.998 265.061L448.299 266.906L455.186 235.92L446.885 234.075L439.998 265.061Z" fill="#EBEBEB"/>
<path d="M430.68 266.921H434.926V228.552H430.68V266.921Z" fill="#EBEBEB"/>
<path d="M488.094 114.829H460.309V351.605H488.094V114.829Z" fill="#E0E0E0"/>
<path d="M208.337 96.266V63.0122H161.293V96.266H208.337Z" fill="#E0E0E0"/>
<path d="M206.128 94.0891V65.1784H163.502V94.0891H206.128Z" fill="#EBEBEB"/>
<path d="M192.026 138.034V104.781H144.982V138.034H192.026Z" fill="#E0E0E0"/>
<path d="M189.817 135.858V106.947H147.191V135.858H189.817Z" fill="#EBEBEB"/>
<path d="M122.43 96.266H152.371V53.9079L122.43 53.9079V96.266Z" fill="#E0E0E0"/>
<path d="M124.382 94.2714H150.419V55.8917H124.382V94.2714Z" fill="#EBEBEB"/>
<path d="M105.391 151.836H138.644V104.791H105.391V151.836Z" fill="#E0E0E0"/>
<path d="M107.568 149.616H136.478V106.99H107.568V149.616Z" fill="#EBEBEB"/>
<path d="M75.429 70.2292V96.266H112.264V70.2292H75.429Z" fill="#E0E0E0"/>
<path d="M77.1662 71.9342V94.5717H110.538V71.9342H77.1662Z" fill="#EBEBEB"/>
<path d="M268.99 400.451C383.82 400.451 476.909 395.016 476.909 388.312C476.909 381.608 383.82 376.173 268.99 376.173C154.159 376.173 61.0701 381.608 61.0701 388.312C61.0701 395.016 154.159 400.451 268.99 400.451Z" fill="#F5F5F5"/>
<path d="M467.376 15.9464V58.1115C467.369 58.6571 467.25 59.1954 467.027 59.6935C466.805 60.1916 466.483 60.639 466.081 61.0084C465.68 61.3778 465.207 61.6614 464.692 61.8419C464.177 62.0223 463.631 62.0958 463.087 62.0578H320.688C320.688 62.0578 304.227 54.3797 305.45 43.6561C306.383 35.0773 307.348 28.1177 308.141 22.8095C308.612 19.7034 310.181 16.8691 312.564 14.8224C314.947 12.7757 317.986 11.6524 321.128 11.657H463.087C464.224 11.657 465.315 12.1089 466.12 12.9133C466.924 13.7177 467.376 14.8088 467.376 15.9464Z" fill="white"/>
<path opacity="0.6" d="M467.376 15.9464V58.1115C467.369 58.6571 467.25 59.1954 467.027 59.6935C466.805 60.1916 466.483 60.639 466.081 61.0084C465.68 61.3778 465.207 61.6614 464.692 61.8419C464.177 62.0223 463.631 62.0958 463.087 62.0578H320.688C320.688 62.0578 304.227 54.3797 305.45 43.6561C306.383 35.0773 307.348 28.1177 308.141 22.8095C308.612 19.7034 310.181 16.8691 312.564 14.8224C314.947 12.7757 317.986 11.6524 321.128 11.657H463.087C464.224 11.657 465.315 12.1089 466.12 12.9133C466.924 13.7177 467.376 14.8088 467.376 15.9464Z" fill="white"/>
<path opacity="0.2" d="M467.376 15.9464V58.1115C467.369 58.6571 467.25 59.1954 467.027 59.6935C466.805 60.1916 466.483 60.639 466.081 61.0084C465.68 61.3778 465.207 61.6614 464.692 61.8419C464.177 62.0223 463.631 62.0958 463.087 62.0578H450.529C450.529 62.0578 434.058 54.3797 435.205 43.6561C436.138 35.0773 437.103 28.1177 437.897 22.8095C438.367 19.6877 439.948 16.8406 442.35 14.7916C444.751 12.7426 447.812 11.6295 450.969 11.657H463.087C464.224 11.657 465.315 12.1089 466.12 12.9133C466.924 13.7177 467.376 14.8088 467.376 15.9464Z" fill="black"/>
<path d="M308.667 47.0448H433.06C433.06 47.0448 437.168 56.1598 444.138 59.9131H322.608C322.608 59.9131 309.739 54.0151 308.667 47.0448Z" fill="white"/>
<path opacity="0.2" d="M308.667 47.0448H433.06C433.06 47.0448 437.168 56.1598 444.138 59.9131H322.608C322.608 59.9131 309.739 54.0151 308.667 47.0448Z" fill="black"/>
<path d="M317.246 55.6237H437.35L435.559 59.9131H317.246V55.6237Z" fill="white"/>
<path d="M312.956 50.2619H433.06L431.27 54.5513H312.956V50.2619Z" fill="white"/>
<path d="M428.771 43.8277H425.736V45.0824H428.771V43.8277Z" fill="white"/>
<path d="M424.471 43.8277H421.436V45.0824H424.471V43.8277Z" fill="white"/>
<path d="M298.801 39.1522C298.496 38.8528 298.254 38.4956 298.089 38.1016C297.924 37.7076 297.839 37.2846 297.839 36.8574C297.839 36.4301 297.924 36.0071 298.089 35.6131C298.254 35.2191 298.496 34.862 298.801 34.5625" stroke="white" stroke-linecap="round" stroke-linejoin="round"/>
<path d="M297.118 40.8466C296.592 40.3235 296.176 39.7018 295.891 39.0172C295.607 38.3327 295.46 37.5987 295.46 36.8574C295.46 36.1161 295.607 35.3821 295.891 34.6975C296.176 34.013 296.592 33.3913 297.118 32.8682" stroke="white" stroke-width="1.05659" stroke-linecap="round" stroke-linejoin="round"/>
<path d="M295.552 42.4122C294.82 41.6839 294.24 40.8182 293.844 39.865C293.448 38.9117 293.244 37.8896 293.244 36.8574C293.244 35.8251 293.448 34.8031 293.844 33.8498C294.24 32.8966 294.82 32.0309 295.552 31.3026" stroke="white" stroke-linecap="round" stroke-linejoin="round"/>
<path d="M301 37.7689C301.503 37.7689 301.911 37.3608 301.911 36.8574C301.911 36.354 301.503 35.9459 301 35.9459C300.496 35.9459 300.088 36.354 300.088 36.8574C300.088 37.3608 300.496 37.7689 301 37.7689Z" fill="white"/>
<path d="M54.518 279.746V389.127H62.0245V295.832H187.49V389.127H197.142V279.746H54.518Z" fill="#263238"/>
<path opacity="0.3" d="M54.518 279.746V389.127H62.0245V295.832H187.49V389.127H197.142V279.746H54.518Z" fill="black"/>
<path opacity="0.4" d="M54.518 279.746V389.127H62.0245V295.832H187.49V389.127H197.142V279.746H54.518Z" fill="white"/>
<path d="M127.438 279.746V389.127H134.945V295.832H260.411V389.127H270.062V279.746H127.438Z" fill="#263238"/>
<path opacity="0.5" d="M127.438 279.746V389.127H134.945V295.832H260.411V389.127H270.062V279.746H127.438Z" fill="white"/>
<path d="M256.55 204.349H215.179C212.52 204.349 210.364 206.505 210.364 209.164V274.932C210.364 277.591 212.52 279.747 215.179 279.747H256.55C259.209 279.747 261.365 277.591 261.365 274.932V209.164C261.365 206.505 259.209 204.349 256.55 204.349Z" fill="#263238"/>
<path opacity="0.1" d="M256.55 204.349H215.179C212.52 204.349 210.364 206.505 210.364 209.164V274.932C210.364 277.591 212.52 279.747 215.179 279.747H256.55C259.209 279.747 261.365 277.591 261.365 274.932V209.164C261.365 206.505 259.209 204.349 256.55 204.349Z" fill="white"/>
<path opacity="0.1" d="M256.55 204.349H243.425C240.765 204.349 238.61 206.505 238.61 209.164V274.932C238.61 277.591 240.765 279.747 243.425 279.747H256.55C259.209 279.747 261.365 277.591 261.365 274.932V209.164C261.365 206.505 259.209 204.349 256.55 204.349Z" fill="white"/>
<path opacity="0.3" d="M250.76 227.651C249.247 227.653 247.768 227.207 246.509 226.368C245.25 225.529 244.268 224.336 243.688 222.939C243.108 221.542 242.955 220.004 243.249 218.52C243.542 217.036 244.27 215.673 245.339 214.603C246.407 213.532 247.77 212.803 249.253 212.507C250.737 212.211 252.275 212.362 253.672 212.94C255.07 213.519 256.265 214.499 257.105 215.756C257.946 217.014 258.395 218.493 258.395 220.005C258.392 222.031 257.587 223.972 256.156 225.405C254.725 226.838 252.785 227.646 250.76 227.651V227.651Z" fill="black"/>
<path opacity="0.2" d="M257.397 220.005C257.397 221.327 257.006 222.618 256.272 223.717C255.537 224.816 254.494 225.672 253.273 226.178C252.053 226.683 250.709 226.816 249.413 226.558C248.117 226.3 246.927 225.664 245.993 224.729C245.058 223.795 244.422 222.605 244.164 221.309C243.906 220.013 244.039 218.67 244.544 217.449C245.05 216.228 245.906 215.185 247.005 214.451C248.104 213.716 249.395 213.325 250.717 213.325C252.488 213.325 254.188 214.028 255.441 215.281C256.694 216.534 257.397 218.234 257.397 220.005V220.005Z" fill="white"/>
<path opacity="0.3" d="M253.398 220.005C253.4 220.668 253.205 221.316 252.838 221.868C252.471 222.42 251.949 222.851 251.337 223.105C250.725 223.36 250.052 223.427 249.402 223.298C248.752 223.169 248.155 222.85 247.686 222.382C247.217 221.913 246.899 221.316 246.77 220.666C246.641 220.016 246.708 219.343 246.963 218.731C247.217 218.119 247.648 217.597 248.2 217.23C248.752 216.863 249.4 216.668 250.063 216.67C250.946 216.673 251.793 217.025 252.418 217.65C253.042 218.275 253.395 219.122 253.398 220.005Z" fill="black"/>
<path opacity="0.2" d="M252.797 220.005C252.797 220.546 252.637 221.075 252.336 221.525C252.036 221.974 251.609 222.325 251.109 222.532C250.609 222.739 250.059 222.793 249.529 222.687C248.999 222.582 248.511 222.321 248.129 221.939C247.746 221.557 247.486 221.069 247.381 220.539C247.275 220.008 247.329 219.459 247.536 218.959C247.743 218.459 248.094 218.032 248.543 217.732C248.993 217.431 249.522 217.271 250.063 217.271C250.788 217.271 251.483 217.559 251.996 218.072C252.509 218.585 252.797 219.28 252.797 220.005V220.005Z" fill="white"/>
<path opacity="0.3" d="M250.76 251.243C249.063 251.243 247.404 250.74 245.993 249.797C244.583 248.855 243.483 247.515 242.834 245.947C242.184 244.38 242.014 242.655 242.346 240.991C242.677 239.327 243.494 237.798 244.693 236.598C245.893 235.398 247.422 234.581 249.086 234.25C250.75 233.919 252.475 234.089 254.043 234.739C255.61 235.388 256.95 236.487 257.893 237.898C258.835 239.309 259.338 240.968 259.338 242.664C259.338 244.94 258.435 247.122 256.826 248.731C255.217 250.339 253.035 251.243 250.76 251.243Z" fill="black"/>
<path opacity="0.2" d="M258.18 242.707C258.18 244.192 257.74 245.643 256.915 246.878C256.09 248.112 254.918 249.074 253.546 249.642C252.175 250.21 250.665 250.359 249.209 250.07C247.753 249.78 246.416 249.065 245.366 248.015C244.316 246.965 243.601 245.628 243.311 244.172C243.022 242.716 243.17 241.206 243.739 239.835C244.307 238.463 245.269 237.291 246.503 236.466C247.738 235.641 249.189 235.201 250.674 235.201C252.665 235.201 254.574 235.992 255.982 237.399C257.389 238.807 258.18 240.716 258.18 242.707V242.707Z" fill="white"/>
<path opacity="0.3" d="M253.719 242.707C253.719 243.445 253.5 244.167 253.09 244.781C252.68 245.394 252.097 245.873 251.416 246.155C250.734 246.437 249.983 246.511 249.259 246.367C248.536 246.223 247.871 245.868 247.349 245.346C246.827 244.824 246.471 244.159 246.327 243.435C246.183 242.711 246.257 241.961 246.54 241.279C246.822 240.597 247.3 240.014 247.914 239.604C248.528 239.194 249.249 238.975 249.987 238.975C250.977 238.975 251.926 239.369 252.626 240.068C253.326 240.768 253.719 241.718 253.719 242.707Z" fill="black"/>
<path opacity="0.2" d="M253.044 242.707C253.044 243.312 252.864 243.903 252.529 244.405C252.193 244.908 251.715 245.299 251.157 245.531C250.599 245.762 249.984 245.823 249.391 245.705C248.798 245.587 248.254 245.296 247.826 244.868C247.399 244.441 247.108 243.896 246.99 243.303C246.872 242.711 246.933 242.096 247.164 241.538C247.395 240.979 247.787 240.502 248.289 240.166C248.792 239.83 249.383 239.651 249.987 239.651C250.797 239.654 251.573 239.977 252.145 240.549C252.718 241.122 253.041 241.898 253.044 242.707V242.707Z" fill="white"/>
<path d="M200.788 253.066H130.473V279.747H200.788V253.066Z" fill="#263238"/>
<path d="M202.954 234.493H129.336C128.288 234.493 127.438 235.343 127.438 236.391V254.064C127.438 255.112 128.288 255.962 129.336 255.962H202.954C204.002 255.962 204.852 255.112 204.852 254.064V236.391C204.852 235.343 204.002 234.493 202.954 234.493Z" fill="#263238"/>
<path opacity="0.2" d="M202.954 234.493H160.081C159.033 234.493 158.183 235.343 158.183 236.391V254.064C158.183 255.112 159.033 255.962 160.081 255.962H202.954C204.002 255.962 204.852 255.112 204.852 254.064V236.391C204.852 235.343 204.002 234.493 202.954 234.493Z" fill="white"/>
<path d="M202.954 257.023H129.336C128.288 257.023 127.438 257.873 127.438 258.921V276.594C127.438 277.642 128.288 278.492 129.336 278.492H202.954C204.002 278.492 204.852 277.642 204.852 276.594V258.921C204.852 257.873 204.002 257.023 202.954 257.023Z" fill="#263238"/>
<path opacity="0.2" d="M202.954 257.023H160.081C159.033 257.023 158.183 257.873 158.183 258.921V276.594C158.183 277.642 159.033 278.492 160.081 278.492H202.954C204.002 278.492 204.852 277.642 204.852 276.594V258.921C204.852 257.873 204.002 257.023 202.954 257.023Z" fill="white"/>
<path opacity="0.1" d="M202.954 234.493H129.336C128.288 234.493 127.438 235.343 127.438 236.391V254.064C127.438 255.112 128.288 255.962 129.336 255.962H202.954C204.002 255.962 204.852 255.112 204.852 254.064V236.391C204.852 235.343 204.002 234.493 202.954 234.493Z" fill="white"/>
<path opacity="0.1" d="M202.954 257.023H129.336C128.288 257.023 127.438 257.873 127.438 258.921V276.594C127.438 277.642 128.288 278.492 129.336 278.492H202.954C204.002 278.492 204.852 277.642 204.852 276.594V258.921C204.852 257.873 204.002 257.023 202.954 257.023Z" fill="white"/>
<path d="M190.943 242.214H174.804V249.881H190.943V242.214Z" fill="white"/>
<path opacity="0.3" d="M192.316 241.592H173.367V250.46H192.316V241.592Z" fill="black"/>
<path d="M173.464 268.047C173.464 269.021 173.175 269.972 172.634 270.782C172.094 271.591 171.325 272.222 170.425 272.595C169.526 272.967 168.536 273.065 167.582 272.875C166.627 272.685 165.75 272.216 165.061 271.528C164.373 270.839 163.904 269.962 163.714 269.007C163.524 268.053 163.622 267.063 163.994 266.163C164.367 265.264 164.998 264.495 165.807 263.954C166.617 263.414 167.568 263.125 168.542 263.125C169.847 263.125 171.099 263.644 172.022 264.567C172.945 265.49 173.464 266.742 173.464 268.047Z" fill="#263238"/>
<path d="M175.609 268.047C175.609 269.021 175.32 269.972 174.779 270.782C174.238 271.591 173.47 272.222 172.57 272.595C171.671 272.967 170.681 273.065 169.726 272.875C168.772 272.685 167.894 272.216 167.206 271.528C166.518 270.839 166.049 269.962 165.859 269.007C165.669 268.053 165.767 267.063 166.139 266.163C166.512 265.264 167.143 264.495 167.952 263.954C168.761 263.414 169.713 263.125 170.687 263.125C171.333 263.124 171.974 263.25 172.572 263.497C173.17 263.744 173.713 264.106 174.17 264.563C174.628 265.021 174.99 265.564 175.237 266.162C175.484 266.76 175.61 267.4 175.609 268.047V268.047Z" fill="#263238"/>
<path opacity="0.5" d="M175.609 268.047C175.609 269.021 175.32 269.972 174.779 270.782C174.238 271.591 173.47 272.222 172.57 272.595C171.671 272.967 170.681 273.065 169.726 272.875C168.772 272.685 167.894 272.216 167.206 271.528C166.518 270.839 166.049 269.962 165.859 269.007C165.669 268.053 165.767 267.063 166.139 266.163C166.512 265.264 167.143 264.495 167.952 263.954C168.761 263.414 169.713 263.125 170.687 263.125C171.333 263.124 171.974 263.25 172.572 263.497C173.17 263.744 173.713 264.106 174.17 264.563C174.628 265.021 174.99 265.564 175.237 266.162C175.484 266.76 175.61 267.4 175.609 268.047V268.047Z" fill="white"/>
<path d="M201.356 268.047C201.354 269.018 201.064 269.966 200.523 270.773C199.982 271.579 199.214 272.207 198.317 272.577C197.419 272.947 196.432 273.043 195.48 272.852C194.528 272.661 193.654 272.193 192.968 271.505C192.282 270.818 191.815 269.943 191.627 268.991C191.438 268.038 191.536 267.051 191.908 266.154C192.28 265.258 192.91 264.491 193.717 263.952C194.525 263.413 195.474 263.125 196.445 263.125C197.09 263.125 197.73 263.252 198.327 263.5C198.923 263.747 199.465 264.11 199.921 264.567C200.377 265.024 200.739 265.567 200.985 266.164C201.231 266.761 201.357 267.401 201.356 268.047V268.047Z" fill="#263238"/>
<path d="M203.501 268.047C203.499 269.018 203.209 269.966 202.668 270.773C202.127 271.579 201.359 272.207 200.461 272.577C199.564 272.947 198.577 273.043 197.625 272.852C196.673 272.661 195.798 272.193 195.113 271.505C194.427 270.818 193.96 269.943 193.772 268.991C193.583 268.038 193.681 267.051 194.053 266.154C194.425 265.258 195.054 264.491 195.862 263.952C196.669 263.413 197.618 263.125 198.589 263.125C199.235 263.125 199.875 263.252 200.471 263.5C201.068 263.747 201.61 264.11 202.066 264.567C202.522 265.024 202.884 265.567 203.13 266.164C203.376 266.761 203.502 267.401 203.501 268.047V268.047Z" fill="#263238"/>
<path opacity="0.5" d="M203.501 268.047C203.499 269.018 203.209 269.966 202.668 270.773C202.127 271.579 201.359 272.207 200.461 272.577C199.564 272.947 198.577 273.043 197.625 272.852C196.673 272.661 195.798 272.193 195.113 271.505C194.427 270.818 193.96 269.943 193.772 268.991C193.583 268.038 193.681 267.051 194.053 266.154C194.425 265.258 195.054 264.491 195.862 263.952C196.669 263.413 197.618 263.125 198.589 263.125C199.235 263.125 199.875 263.252 200.471 263.5C201.068 263.747 201.61 264.11 202.066 264.567C202.522 265.024 202.884 265.567 203.13 266.164C203.376 266.761 203.502 267.401 203.501 268.047V268.047Z" fill="white"/>
<path opacity="0.5" d="M179.576 267.061H177.389V269.248H179.576V267.061Z" fill="white"/>
<path opacity="0.5" d="M182.611 267.061H180.424V269.248H182.611V267.061Z" fill="white"/>
<path opacity="0.5" d="M185.635 267.061H183.448V269.248H185.635V267.061Z" fill="white"/>
<path opacity="0.5" d="M188.67 267.061H186.482V269.248H188.67V267.061Z" fill="white"/>
<path d="M114.999 204.349H73.6274C70.9682 204.349 68.8125 206.505 68.8125 209.164V274.932C68.8125 277.591 70.9682 279.747 73.6274 279.747H114.999C117.658 279.747 119.814 277.591 119.814 274.932V209.164C119.814 206.505 117.658 204.349 114.999 204.349Z" fill="#263238"/>
<path opacity="0.1" d="M114.999 204.349H73.6274C70.9682 204.349 68.8125 206.505 68.8125 209.164V274.932C68.8125 277.591 70.9682 279.747 73.6274 279.747H114.999C117.658 279.747 119.814 277.591 119.814 274.932V209.164C119.814 206.505 117.658 204.349 114.999 204.349Z" fill="white"/>
<path opacity="0.1" d="M114.999 204.349H101.873C99.2141 204.349 97.0584 206.505 97.0584 209.164V274.932C97.0584 277.591 99.2141 279.747 101.873 279.747H114.999C117.658 279.747 119.814 277.591 119.814 274.932V209.164C119.814 206.505 117.658 204.349 114.999 204.349Z" fill="white"/>
<path opacity="0.3" d="M109.208 227.651C107.696 227.653 106.216 227.207 104.957 226.368C103.699 225.529 102.717 224.336 102.137 222.939C101.556 221.542 101.403 220.004 101.697 218.52C101.991 217.036 102.718 215.673 103.787 214.603C104.856 213.532 106.218 212.803 107.702 212.507C109.185 212.211 110.723 212.362 112.121 212.94C113.519 213.519 114.714 214.499 115.554 215.756C116.395 217.014 116.843 218.493 116.843 220.005C116.841 222.031 116.036 223.972 114.605 225.405C113.174 226.838 111.233 227.646 109.208 227.651Z" fill="black"/>
<path opacity="0.2" d="M115.846 220.005C115.846 221.327 115.454 222.618 114.72 223.717C113.986 224.816 112.943 225.672 111.722 226.178C110.501 226.683 109.158 226.816 107.862 226.558C106.566 226.3 105.376 225.664 104.441 224.729C103.507 223.795 102.871 222.605 102.613 221.309C102.355 220.013 102.487 218.67 102.993 217.449C103.499 216.228 104.355 215.185 105.454 214.451C106.552 213.716 107.844 213.325 109.165 213.325C110.937 213.325 112.636 214.028 113.889 215.281C115.142 216.534 115.846 218.234 115.846 220.005V220.005Z" fill="white"/>
<path opacity="0.3" d="M111.846 220.005C111.848 220.668 111.654 221.316 111.287 221.868C110.92 222.42 110.398 222.851 109.786 223.105C109.174 223.36 108.5 223.427 107.85 223.298C107.2 223.169 106.603 222.85 106.135 222.382C105.666 221.913 105.347 221.316 105.219 220.666C105.09 220.016 105.157 219.343 105.411 218.731C105.666 218.119 106.097 217.597 106.648 217.23C107.2 216.863 107.849 216.668 108.511 216.67C109.395 216.673 110.241 217.025 110.866 217.65C111.491 218.275 111.843 219.122 111.846 220.005V220.005Z" fill="black"/>
<path opacity="0.2" d="M111.246 220.005C111.246 220.546 111.085 221.075 110.785 221.525C110.484 221.974 110.057 222.325 109.558 222.532C109.058 222.739 108.508 222.793 107.978 222.687C107.447 222.582 106.96 222.321 106.578 221.939C106.195 221.557 105.935 221.069 105.829 220.539C105.724 220.008 105.778 219.459 105.985 218.959C106.192 218.459 106.542 218.032 106.992 217.732C107.442 217.431 107.97 217.271 108.511 217.271C109.236 217.271 109.932 217.559 110.445 218.072C110.958 218.585 111.246 219.28 111.246 220.005V220.005Z" fill="white"/>
<path opacity="0.3" d="M109.208 251.243C107.512 251.243 105.853 250.74 104.442 249.797C103.031 248.855 101.932 247.515 101.282 245.947C100.633 244.38 100.463 242.655 100.794 240.991C101.125 239.327 101.942 237.798 103.142 236.598C104.342 235.398 105.87 234.581 107.535 234.25C109.199 233.919 110.924 234.089 112.491 234.739C114.059 235.388 115.399 236.487 116.341 237.898C117.284 239.309 117.787 240.968 117.787 242.664C117.787 244.94 116.883 247.122 115.274 248.731C113.666 250.339 111.484 251.243 109.208 251.243Z" fill="black"/>
<path opacity="0.2" d="M116.629 242.707C116.629 244.192 116.189 245.643 115.364 246.878C114.539 248.112 113.367 249.074 111.995 249.642C110.623 250.21 109.114 250.359 107.658 250.07C106.202 249.78 104.864 249.065 103.815 248.015C102.765 246.965 102.05 245.628 101.76 244.172C101.471 242.716 101.619 241.206 102.187 239.835C102.756 238.463 103.718 237.291 104.952 236.466C106.187 235.641 107.638 235.201 109.122 235.201C111.113 235.201 113.023 235.992 114.43 237.399C115.838 238.807 116.629 240.716 116.629 242.707Z" fill="white"/>
<path opacity="0.3" d="M112.168 242.707C112.168 243.445 111.949 244.167 111.539 244.781C111.129 245.394 110.546 245.873 109.864 246.155C109.182 246.437 108.432 246.511 107.708 246.367C106.984 246.223 106.319 245.868 105.797 245.346C105.275 244.824 104.92 244.159 104.776 243.435C104.632 242.711 104.706 241.961 104.988 241.279C105.271 240.597 105.749 240.014 106.363 239.604C106.977 239.194 107.698 238.975 108.436 238.975C109.426 238.975 110.375 239.369 111.075 240.068C111.775 240.768 112.168 241.718 112.168 242.707Z" fill="black"/>
<path opacity="0.2" d="M111.492 242.707C111.492 243.312 111.313 243.903 110.977 244.405C110.641 244.908 110.164 245.299 109.606 245.531C109.047 245.762 108.433 245.823 107.84 245.705C107.247 245.587 106.702 245.296 106.275 244.868C105.848 244.441 105.557 243.896 105.439 243.303C105.321 242.711 105.381 242.096 105.613 241.538C105.844 240.979 106.236 240.502 106.738 240.166C107.241 239.83 107.832 239.651 108.436 239.651C109.246 239.654 110.022 239.977 110.594 240.549C111.167 241.122 111.49 241.898 111.492 242.707V242.707Z" fill="white"/>
<path d="M168.188 224.574C168.488 224.267 168.845 224.024 169.24 223.858C169.635 223.691 170.06 223.606 170.488 223.606C170.917 223.606 171.341 223.691 171.736 223.858C172.131 224.024 172.489 224.267 172.788 224.574" stroke="white" stroke-linecap="round" stroke-linejoin="round"/>
<path d="M166.494 222.912C167.553 221.856 168.987 221.263 170.483 221.263C171.978 221.263 173.413 221.856 174.472 222.912" stroke="white" stroke-width="1.05659" stroke-linecap="round" stroke-linejoin="round"/>
<path d="M164.971 221.314C166.447 219.841 168.446 219.014 170.531 219.014C172.616 219.014 174.616 219.841 176.091 221.314" stroke="white" stroke-linecap="round" stroke-linejoin="round"/>
<path d="M171.405 226.761C171.407 226.945 171.355 227.124 171.254 227.278C171.154 227.431 171.01 227.551 170.841 227.622C170.672 227.693 170.485 227.712 170.306 227.677C170.126 227.642 169.96 227.554 169.831 227.424C169.701 227.294 169.613 227.129 169.578 226.949C169.543 226.769 169.562 226.583 169.633 226.414C169.704 226.245 169.824 226.101 169.977 226.001C170.13 225.9 170.31 225.848 170.494 225.85C170.735 225.85 170.967 225.946 171.138 226.117C171.309 226.288 171.405 226.52 171.405 226.761Z" fill="white"/>
<path d="M327.476 293.408H262.888C256 293.408 250.416 298.992 250.416 305.88V356.656C250.416 363.544 256 369.128 262.888 369.128H327.476C334.364 369.128 339.948 363.544 339.948 356.656V305.88C339.948 298.992 334.364 293.408 327.476 293.408Z" fill="white"/>
<path opacity="0.1" d="M327.476 293.408H262.888C256 293.408 250.416 298.992 250.416 305.88V356.656C250.416 363.544 256 369.128 262.888 369.128H327.476C334.364 369.128 339.948 363.544 339.948 356.656V305.88C339.948 298.992 334.364 293.408 327.476 293.408Z" fill="white"/>
<path opacity="0.2" d="M262.877 369.138C259.571 369.135 256.402 367.82 254.065 365.482C251.729 363.143 250.416 359.973 250.416 356.667V305.88C250.416 302.574 251.729 299.404 254.065 297.065C256.402 294.726 259.571 293.411 262.877 293.408C266.185 293.408 269.357 294.722 271.696 297.061C274.035 299.4 275.349 302.572 275.349 305.88V356.667C275.349 359.974 274.035 363.147 271.696 365.485C269.357 367.824 266.185 369.138 262.877 369.138V369.138Z" fill="white"/>
<path d="M108.136 366.146L104.383 389.127H112.425L119.814 367.208L108.136 366.146Z" fill="#263238"/>
<path d="M217.935 366.146L221.688 389.127H213.645L206.257 367.208L217.935 366.146Z" fill="#263238"/>
<path opacity="0.1" d="M108.136 366.146L104.383 389.127H112.425L119.814 367.208L108.136 366.146Z" fill="white"/>
<path opacity="0.1" d="M217.935 366.146L221.688 389.127H213.645L206.257 367.208L217.935 366.146Z" fill="white"/>
<path d="M332.259 366.146L328.506 389.127H336.548L343.937 367.208L332.259 366.146Z" fill="#263238"/>
<path d="M442.058 366.146L445.811 389.127H437.768L430.38 367.208L442.058 366.146Z" fill="#263238"/>
<path d="M448.459 317.279H101.316C96.1987 317.279 92.0505 321.427 92.0505 326.544V362.704C92.0505 367.821 96.1987 371.969 101.316 371.969H448.459C453.577 371.969 457.725 367.821 457.725 362.704V326.544C457.725 321.427 453.577 317.279 448.459 317.279Z" fill="white"/>
<path opacity="0.1" d="M448.459 317.279H101.316C96.1987 317.279 92.0505 321.427 92.0505 326.544V362.704C92.0505 367.821 96.1987 371.969 101.316 371.969H448.459C453.577 371.969 457.725 367.821 457.725 362.704V326.544C457.725 321.427 453.577 317.279 448.459 317.279Z" fill="white"/>
<path opacity="0.2" d="M221.12 317.279H101.316C96.1987 317.279 92.0505 321.427 92.0505 326.544V362.704C92.0505 367.821 96.1987 371.969 101.316 371.969H221.12C226.237 371.969 230.385 367.821 230.385 362.704V326.544C230.385 321.427 226.237 317.279 221.12 317.279Z" fill="white"/>
<path d="M320.463 318.544H452.363L472.459 214.762C472.973 212.096 472.891 209.349 472.218 206.718C471.546 204.088 470.299 201.639 468.567 199.548C466.836 197.457 464.662 195.775 462.204 194.623C459.745 193.471 457.062 192.877 454.347 192.885H359.915C355.654 192.897 351.53 194.387 348.246 197.102C344.962 199.817 342.722 203.587 341.91 207.77L320.463 318.544Z" fill="white"/>
<g opacity="0.1">
<path opacity="0.1" d="M320.463 318.544H452.363L472.459 214.762C472.973 212.096 472.891 209.349 472.218 206.718C471.546 204.088 470.299 201.639 468.567 199.548C466.836 197.457 464.662 195.775 462.204 194.623C459.745 193.471 457.062 192.877 454.347 192.885H359.915C355.654 192.897 351.53 194.387 348.246 197.102C344.962 199.817 342.722 203.587 341.91 207.77L320.463 318.544Z" fill="white"/>
</g>
<path opacity="0.2" d="M320.463 318.351H414.83L436.278 207.673C437.097 203.49 439.35 199.724 442.648 197.024C445.947 194.325 450.084 192.861 454.347 192.885H359.915C355.662 192.876 351.539 194.349 348.253 197.049C344.967 199.75 342.725 203.51 341.91 207.684L320.463 318.351Z" fill="white"/>
<path d="M466.968 293.408H402.38C395.492 293.408 389.909 298.992 389.909 305.88V356.656C389.909 363.544 395.492 369.128 402.38 369.128H466.968C473.856 369.128 479.44 363.544 479.44 356.656V305.88C479.44 298.992 473.856 293.408 466.968 293.408Z" fill="white"/>
<path opacity="0.1" d="M466.968 293.408H402.38C395.492 293.408 389.909 298.992 389.909 305.88V356.656C389.909 363.544 395.492 369.128 402.38 369.128H466.968C473.856 369.128 479.44 363.544 479.44 356.656V305.88C479.44 298.992 473.856 293.408 466.968 293.408Z" fill="white"/>
<path opacity="0.2" d="M402.37 369.138C399.064 369.135 395.894 367.82 393.558 365.482C391.221 363.143 389.909 359.973 389.909 356.667V305.88C389.909 302.574 391.221 299.404 393.558 297.065C395.894 294.726 399.064 293.411 402.37 293.408V293.408C405.675 293.411 408.845 294.726 411.181 297.065C413.518 299.404 414.83 302.574 414.83 305.88V356.667C414.83 359.973 413.518 363.143 411.181 365.482C408.845 367.82 405.675 369.135 402.37 369.138V369.138Z" fill="white"/>
<path d="M348.462 307.231C348.462 307.231 338.339 321.568 322.725 320.496C293.482 318.491 257.944 277.602 253.655 277.248C246.867 276.68 190.386 307.274 190.386 307.274L179.984 295.65C179.984 295.65 240.733 247.704 253.977 246.922C267.22 246.139 348.462 307.231 348.462 307.231Z" fill="white"/>
<path opacity="0.6" d="M348.612 307.231C348.529 307.301 348.462 307.388 348.416 307.486C348.37 307.584 348.345 307.691 348.344 307.799V307.799C345.34 311.567 341.619 314.701 337.395 317.022C332.963 319.583 327.879 320.791 322.768 320.496C293.525 318.491 257.955 277.602 253.666 277.248C246.878 276.68 190.396 307.274 190.396 307.274L179.984 295.65C179.984 295.65 203.576 277.066 224.497 262.846C237.205 254.267 248.969 247.222 253.966 246.922C266.255 246.203 337.159 298.738 347.315 306.32C348.119 306.909 348.612 307.231 348.612 307.231Z" fill="white"/>
<path d="M332.173 195.406C332.173 195.406 326.425 195.298 326.232 196.317C326.039 197.336 326.404 205.732 327.165 206.912C328.009 207.977 328.969 208.945 330.028 209.797L325.825 222.311L332.913 225.903L336.023 212.263C336.023 212.263 339.54 208.821 338.511 204.456C337.481 200.092 332.173 195.406 332.173 195.406Z" fill="#EEC1BB"/>
<path opacity="0.2" d="M332.173 195.406C332.173 195.406 326.425 195.298 326.232 196.317C326.039 197.336 326.404 205.732 327.165 206.912C328.009 207.977 328.969 208.945 330.028 209.797L325.825 222.311L332.913 225.903L336.023 212.263C336.023 212.263 339.54 208.821 338.511 204.456C337.481 200.092 332.173 195.406 332.173 195.406Z" fill="black"/>
<path d="M324.752 222.472L326.5 218.783L335.165 222.472L334.596 226.933L324.752 222.472Z" fill="#263238"/>
<path d="M356.387 211.652C347.808 211.834 333.149 246.15 333.149 246.15C333.149 246.15 336.462 229.346 335.701 227.383C334.94 225.421 327.615 220.585 323.68 221.657C319.744 222.729 311.348 250.353 317.246 260.047C323.144 269.741 334.05 272.058 349.234 261.87C364.419 251.683 356.387 211.652 356.387 211.652Z" fill="#263238"/>
<path opacity="0.3" d="M350.489 260.927C350.092 261.259 349.674 261.538 349.245 261.838C340.537 267.672 333.245 269.023 327.487 267.951C325.338 267.378 323.327 266.379 321.571 265.014C319.816 263.649 318.352 261.946 317.267 260.004C311.369 250.353 319.766 222.708 323.701 221.635C327.637 220.563 334.961 225.399 335.722 227.373C336.484 229.346 333.331 245.431 333.16 246.128C333.61 245.056 347.937 211.813 356.387 211.652C356.387 211.652 363.979 249.431 350.489 260.927Z" fill="black"/>
<path opacity="0.2" d="M350.489 260.927C350.091 261.262 349.675 261.577 349.245 261.87C340.537 267.704 333.245 269.441 327.487 268.026C339.594 262.213 348.666 246.922 348.666 246.922L350.489 260.927Z" fill="black"/>
<path d="M370.563 210.762C370.563 210.762 374.778 203.062 391.045 206.108C407.313 209.153 404.171 215.534 398.938 217.786C393.705 220.038 374.896 217.786 374.896 217.786C374.896 217.786 369.512 213.614 370.563 210.762Z" fill="#263238"/>
<path opacity="0.2" d="M370.563 210.762C370.563 210.762 374.778 203.062 391.045 206.108C407.313 209.153 404.171 215.534 398.938 217.786C393.705 220.038 374.896 217.786 374.896 217.786C374.896 217.786 369.512 213.614 370.563 210.762Z" fill="black"/>
<path d="M324.752 283.628C324.752 283.628 341.106 272.519 346.199 255.747C351.293 238.975 356.387 211.641 356.387 211.641C356.387 211.641 380.783 205.475 404.375 214.322C427.967 223.169 401.501 300.336 379.807 308.486L324.752 283.628Z" fill="#263238"/>
<path d="M394.005 190.323C391.86 196.757 389.04 208.714 393.104 213.721C390.9 215.484 388.368 216.792 385.655 217.568C382.941 218.345 380.101 218.576 377.298 218.247C368.794 217.367 372.612 211.116 372.612 211.116C380.204 210.29 380.708 204.789 380.118 199.491L394.005 190.323Z" fill="#EEC1BB"/>
<path opacity="0.2" d="M388.311 194.065L380.032 199.491C380.197 200.724 380.254 201.969 380.204 203.212C383.078 203.212 387.335 200.564 388.011 197.658C388.33 196.488 388.431 195.271 388.311 194.065V194.065Z" fill="black"/>
<path d="M380.515 170.806C383.807 173.84 381.512 177.797 372.258 183.149C369.545 178.291 370.252 169.744 373.234 168.007C376.215 166.27 377.641 168.221 380.515 170.806Z" fill="#263238"/>
<path d="M395.228 180.017C393.962 186.548 393.319 191.138 391.035 194.698C390.166 196.032 389.079 197.211 387.818 198.183C380.107 204.199 369.588 198.644 368.633 189.433C368.633 189.143 368.58 188.843 368.569 188.542C367.99 180.232 371.057 167.921 379.968 165.605C382 165.062 384.138 165.048 386.177 165.564C388.216 166.08 390.09 167.109 391.619 168.553C393.148 169.998 394.283 171.809 394.914 173.816C395.546 175.822 395.654 177.957 395.228 180.017V180.017Z" fill="#EEC1BB"/>
<path opacity="0.3" d="M391.035 194.644C390.166 195.979 389.079 197.157 387.818 198.129C380.107 204.145 369.588 198.59 368.633 189.379C368.633 189.089 368.58 188.789 368.569 188.489C370.242 189.422 372.579 190.473 374.338 190.323C377.416 190.076 380.708 187.963 382.842 187.288C384.159 186.959 385.531 186.923 386.863 187.181C386.863 187.181 390.284 185.036 391.153 181.819L392.011 183.685C392.517 187.365 392.183 191.112 391.035 194.644V194.644Z" fill="black"/>
<path d="M381.587 180.661C381.491 181.39 381.019 181.926 380.515 181.862C380.011 181.797 379.732 181.165 379.829 180.435C379.925 179.706 380.386 179.17 380.901 179.224C381.416 179.277 381.587 179.942 381.587 180.661Z" fill="#263238"/>
<path d="M373.255 179.588C373.159 180.317 372.697 180.854 372.183 180.789C371.668 180.725 371.389 180.092 371.486 179.352C371.582 178.612 372.043 178.087 372.558 178.151C373.073 178.216 373.352 178.859 373.255 179.588Z" fill="#263238"/>
<path d="M375.914 180.285C374.759 182.398 373.315 184.339 371.625 186.055C372.078 186.471 372.618 186.784 373.205 186.969C373.793 187.154 374.414 187.208 375.024 187.127L375.914 180.285Z" fill="#D58745"/>
<path d="M384.15 178.344C384.239 178.381 384.34 178.381 384.429 178.344C384.527 178.286 384.599 178.193 384.631 178.083C384.663 177.974 384.652 177.856 384.601 177.755C384.278 177.156 383.819 176.643 383.26 176.257C382.7 175.871 382.057 175.623 381.383 175.535C381.329 175.529 381.274 175.534 381.222 175.55C381.169 175.566 381.121 175.592 381.079 175.627C381.037 175.662 381.002 175.705 380.977 175.754C380.952 175.802 380.937 175.856 380.933 175.91V175.91C380.93 176.023 380.968 176.132 381.042 176.218C381.115 176.303 381.218 176.358 381.33 176.371V176.371C381.866 176.445 382.376 176.645 382.82 176.954C383.264 177.264 383.628 177.674 383.882 178.151C383.912 178.2 383.951 178.242 383.997 178.275C384.043 178.308 384.095 178.331 384.15 178.344V178.344Z" fill="#263238"/>
<path d="M369.856 176.296C369.936 176.306 370.018 176.293 370.092 176.259C370.166 176.225 370.229 176.171 370.274 176.103C370.56 175.642 370.952 175.256 371.415 174.974C371.879 174.693 372.403 174.525 372.944 174.484C373.058 174.484 373.167 174.439 373.247 174.358C373.328 174.278 373.373 174.169 373.373 174.055C373.383 173.945 373.35 173.835 373.283 173.748C373.215 173.66 373.117 173.602 373.008 173.583C372.322 173.622 371.654 173.825 371.063 174.176C370.471 174.527 369.972 175.015 369.609 175.599C369.547 175.693 369.525 175.808 369.547 175.918C369.569 176.028 369.634 176.126 369.727 176.189V176.189C369.763 176.232 369.807 176.268 369.856 176.296V176.296Z" fill="#263238"/>
<path d="M392.708 171.556C388.332 172.446 388.257 177.025 393.415 186.376C398.252 183.62 402.069 175.932 400.386 172.918C398.702 169.905 396.525 170.795 392.708 171.556Z" fill="#263238"/>
<path d="M398.552 187.685C398.104 188.719 397.457 189.654 396.647 190.438C395.838 191.222 394.882 191.839 393.834 192.253C391.013 193.325 389.33 190.88 389.877 188.081C390.359 185.551 392.418 181.947 395.356 182.076C398.295 182.205 399.657 185.122 398.552 187.685Z" fill="#EEC1BB"/>
<path d="M381.501 189.668C381.501 189.668 379.518 192.36 375.207 191.577" stroke="#263238" stroke-width="0.526291" stroke-linecap="round" stroke-linejoin="round"/>
<path d="M373.148 165.133C372.976 166.141 373.276 167.771 378.724 168.575C384.172 169.379 389.18 167.063 390.885 168.575C392.59 170.087 394.348 174.956 394.348 174.956L400.353 173.615C400.353 173.615 401.694 169.648 398.477 165.133C395.26 160.618 377.309 164.061 375.957 161.605C375.914 161.605 373.502 162.956 373.148 165.133Z" fill="#263238"/>
<path d="M172.896 317.258L168.735 309.708L184.305 296.625L188.456 304.175L172.896 317.258Z" fill="#EEC1BB"/>
<path opacity="0.2" d="M188.456 304.175L184.305 296.636L175.394 304.111L179.887 311.392L188.456 304.175Z" fill="black"/>
<path d="M188.413 311.231L176.123 296.797L181.657 290.674L194.825 306.759L188.413 311.231Z" fill="white"/>
<path opacity="0.2" d="M188.413 311.231L176.123 296.797L181.657 290.674L194.825 306.759L188.413 311.231Z" fill="white"/>
<path d="M169.26 310.362H168.81C168.81 310.223 169.657 308.035 169.292 306.909C169.089 306.578 168.779 306.324 168.413 306.191C168.237 306.111 168.042 306.085 167.851 306.116C167.661 306.146 167.483 306.232 167.341 306.362C166.972 307.013 166.854 307.776 167.008 308.507C166.483 307.746 165.775 306.952 165.164 306.888C165.034 306.874 164.904 306.894 164.784 306.944C164.664 306.995 164.558 307.075 164.478 307.177C164.332 307.31 164.226 307.481 164.172 307.67C164.117 307.859 164.115 308.06 164.167 308.25C164.436 308.743 164.874 309.124 165.4 309.322C166.085 309.657 166.804 309.92 167.545 310.105C167.545 310.105 167.545 310.105 167.609 310.105C167.673 310.105 167.609 310.105 167.673 310.105C167.738 310.105 168.006 310.223 168.038 310.201L168.788 310.298L169.26 310.362ZM167.523 306.62C167.58 306.553 167.658 306.508 167.745 306.494C167.832 306.48 167.92 306.498 167.995 306.545H168.091C168.162 306.58 168.224 306.63 168.273 306.691C168.323 306.752 168.36 306.823 168.381 306.899C168.427 307.832 168.167 308.754 167.641 309.526L167.545 309.354C167.223 308.472 167.216 307.507 167.523 306.62V306.62ZM164.553 308.143C164.52 308.019 164.522 307.889 164.558 307.766C164.594 307.643 164.663 307.532 164.756 307.446C164.793 307.393 164.843 307.352 164.902 307.327C164.961 307.302 165.026 307.295 165.089 307.306C165.689 307.37 166.622 308.668 167.234 309.697C165.711 309.247 164.724 308.7 164.553 308.143V308.143Z" fill="white"/>
<path d="M168.799 309.515L177.378 313.998C177.452 314.031 177.518 314.079 177.573 314.138C177.628 314.197 177.67 314.267 177.698 314.343C177.726 314.418 177.739 314.499 177.735 314.58C177.732 314.66 177.713 314.739 177.678 314.813L174.547 321.815C174.362 322.17 174.043 322.438 173.661 322.558C173.279 322.679 172.865 322.643 172.51 322.459C169.539 320.85 168.22 319.928 164.456 317.922C162.151 316.711 157.464 314.523 154.569 312.357C151.674 310.191 153.883 307.392 155.309 308.068C158.676 309.622 164.252 309.837 167.287 309.269C167.805 309.186 168.335 309.272 168.799 309.515V309.515Z" fill="#263238"/>
<path d="M377.298 218.247C377.298 218.247 378.027 213.721 388.407 209.561C398.788 205.4 407.56 210.022 406.305 213.078C406.305 213.078 413.05 213.775 409.586 218.247C406.123 222.719 377.298 218.247 377.298 218.247Z" fill="#263238"/>
<path d="M374.896 217.786C374.167 216.179 373.904 214.4 374.14 212.651C374.375 210.902 375.098 209.255 376.225 207.899C376.225 207.899 374.671 205.046 371.593 207.899C371.614 207.899 359.271 211.051 374.896 217.786Z" fill="#263238"/>
<path opacity="0.2" d="M377.298 218.247C377.298 218.247 378.027 213.721 388.407 209.561C398.788 205.4 407.56 210.022 406.305 213.078C406.305 213.078 413.05 213.775 409.586 218.247C406.123 222.719 377.298 218.247 377.298 218.247Z" fill="black"/>
<path opacity="0.2" d="M374.896 217.786C374.167 216.179 373.904 214.4 374.14 212.651C374.375 210.902 375.098 209.255 376.225 207.899C376.225 207.899 374.671 205.046 371.593 207.899C371.614 207.899 359.271 211.051 374.896 217.786Z" fill="black"/>
<path d="M372.354 216.145C372.354 216.145 366.306 218.408 365.77 233.303C365.234 248.198 357.995 248.048 357.995 248.048" stroke="white" stroke-linecap="round" stroke-linejoin="round"/>
<path d="M379.443 217.153C379.443 217.153 376.461 221.839 378.37 230.954C380.279 240.069 379.196 250.396 373.008 253.742" stroke="white" stroke-linecap="round" stroke-linejoin="round"/>
<path d="M341.91 202.751C341.919 202.877 341.9 203.003 341.854 203.12C341.809 203.238 341.738 203.344 341.647 203.431C341.556 203.518 341.446 203.584 341.327 203.624C341.208 203.664 341.081 203.677 340.956 203.663L331.176 202.901C330.896 202.886 330.632 202.768 330.435 202.57C330.237 202.372 330.119 202.108 330.103 201.829L329.428 182.366C329.414 182.231 329.429 182.094 329.472 181.965C329.514 181.836 329.583 181.717 329.673 181.616C329.764 181.515 329.875 181.435 329.999 181.379C330.123 181.323 330.257 181.294 330.393 181.293L340.162 182.044C340.442 182.101 340.694 182.251 340.879 182.469C341.063 182.686 341.17 182.96 341.181 183.245L341.91 202.751Z" fill="#263238"/>
<path opacity="0.5" d="M340.162 183.084L340.859 202.73C340.879 202.845 340.871 202.963 340.837 203.075C340.802 203.187 340.741 203.288 340.66 203.372C340.578 203.456 340.478 203.519 340.367 203.556C340.256 203.594 340.138 203.605 340.023 203.588L331.733 202.944C331.176 202.944 330.189 202.515 330.168 201.958L329.471 182.248C329.471 181.701 330.436 181.336 330.993 181.379L339.272 182.023C339.528 182.052 339.763 182.179 339.928 182.376C340.094 182.574 340.177 182.827 340.162 183.084V183.084Z" fill="white"/>
<path d="M351.851 217.55L348.14 208.885C348.14 208.885 346.929 197.261 346.339 196.017C345.749 194.773 336.302 195.234 335.272 195.159C334.243 195.084 334.403 206.665 335.476 207.899C336.548 209.132 340.323 210.097 340.323 210.097L345.063 222.493L351.851 217.55Z" fill="#EEC1BB"/>
<path d="M343.229 222.472L341.921 217.153L351.851 212.209L353.352 217.346L343.229 222.472Z" fill="#263238"/>
<path d="M341.91 222.472C343.057 219.416 348.151 214.751 353.341 216.145C358.532 217.539 370.327 254.9 373.362 256.691C376.397 258.482 397.372 226.311 403.152 223.984C408.932 221.657 413.34 224.123 413.544 237.367C413.747 250.611 392.204 287.199 373.759 284.186C355.314 281.173 337.084 235.447 341.91 222.472Z" fill="#263238"/>
<path opacity="0.2" d="M341.91 222.472C343.057 219.416 348.151 214.751 353.341 216.145C358.532 217.539 370.327 254.9 373.362 256.691C376.397 258.482 397.372 226.311 403.152 223.984C408.932 221.657 413.34 224.123 413.544 237.367C413.747 250.611 392.204 287.199 373.759 284.186C355.314 281.173 337.084 235.447 341.91 222.472Z" fill="black"/>
<path opacity="0.3" d="M343.411 317.279C341.376 317.383 339.336 317.286 337.32 316.99C306.286 312.7 263.328 265.892 261.247 263.372C259.767 261.581 238.535 262.192 224.53 262.803C237.237 254.224 248.99 247.179 253.987 246.879C266.277 246.16 337.256 298.695 347.411 306.277C347.701 306.781 347.272 307.274 348.344 307.757C350.489 313.311 349.953 316.947 343.411 317.279Z" fill="black"/>
<path d="M389.48 300.947C389.48 300.947 377.834 325.418 341.374 319.96C312.42 315.617 274.309 258.589 270.684 256.273C264.958 252.594 200.745 253.141 200.745 253.141L197.002 238.042C197.002 238.042 273.14 224.102 285.204 229.646C291.82 232.67 352.902 285.409 352.902 285.409L389.48 300.947Z" fill="white"/>
<path opacity="0.6" d="M389.48 300.947C389.48 300.947 377.834 325.418 341.374 319.96C312.42 315.617 274.309 258.589 270.684 256.273C264.958 252.594 200.745 253.141 200.745 253.141L197.002 238.042C197.002 238.042 273.14 224.102 285.204 229.646C291.82 232.67 352.902 285.409 352.902 285.409L389.48 300.947Z" fill="white"/>
<path d="M180.627 253.817L180.488 245.195L200.369 240.938L200.498 249.549L180.627 253.817Z" fill="#EEC1BB"/>
<path opacity="0.2" d="M200.498 249.549L200.359 240.938L188.992 243.372L189.549 251.908L200.498 249.549Z" fill="black"/>
<path d="M197.152 255.758L193.056 237.26L200.82 234.429L204.916 254.814L197.152 255.758Z" fill="white"/>
<path opacity="0.2" d="M197.152 255.758L193.056 237.26L200.82 234.429L204.916 254.814L197.152 255.758Z" fill="white"/>
<path d="M181.056 245.989L180.445 245.806C181.31 245.036 181.976 244.069 182.386 242.986C182.386 242.675 182.096 242.193 181.893 241.914C181.77 241.754 181.602 241.636 181.411 241.573C181.22 241.509 181.014 241.505 180.82 241.56C180.195 241.959 179.731 242.567 179.512 243.276C179.503 242.435 179.195 241.626 178.643 240.991C178.535 240.917 178.409 240.871 178.278 240.858C178.147 240.844 178.014 240.865 177.893 240.916C177.695 240.966 177.515 241.071 177.374 241.219C177.233 241.367 177.138 241.552 177.099 241.753C177.084 242.326 177.283 242.884 177.657 243.318C178.107 243.939 178.621 244.51 179.19 245.024C179.19 245.024 179.19 245.024 179.19 245.088H179.265C179.265 245.088 179.512 245.356 179.544 245.345C179.576 245.335 180.359 245.785 180.37 245.774L181.056 245.989ZM180.863 241.914C180.97 241.86 181.121 241.839 181.314 242.064L181.378 242.139C181.423 242.204 181.454 242.277 181.469 242.355C181.484 242.433 181.482 242.512 181.464 242.589C181.357 243.297 180.263 244.123 179.576 244.573V244.359C179.704 243.418 180.16 242.552 180.863 241.914V241.914ZM177.517 241.86C177.548 241.736 177.611 241.622 177.699 241.53C177.788 241.438 177.899 241.37 178.021 241.335C178.077 241.304 178.14 241.287 178.204 241.287C178.268 241.287 178.33 241.304 178.386 241.335C178.89 241.678 179.105 243.265 179.147 244.444C178.021 243.383 177.421 242.418 177.517 241.86V241.86Z" fill="white"/>
<path d="M180.627 245.056L186.096 253.034C186.145 253.098 186.181 253.171 186.201 253.249C186.222 253.327 186.226 253.408 186.215 253.488C186.205 253.567 186.178 253.644 186.137 253.713C186.097 253.783 186.043 253.843 185.978 253.892V253.892L179.93 258.61C179.765 258.727 179.578 258.81 179.381 258.855C179.183 258.899 178.979 258.904 178.78 258.869C178.58 258.834 178.39 258.76 178.219 258.652C178.049 258.543 177.901 258.401 177.786 258.235C175.93 255.415 175.18 253.946 172.799 250.45C171.33 248.305 168.22 244.166 166.676 240.906C165.132 237.646 168.392 236.198 169.335 237.442C171.587 240.391 176.413 243.19 179.362 244.112C179.875 244.28 180.32 244.612 180.627 245.056V245.056Z" fill="#263238"/>
<path d="M333.395 176.189C333.695 175.882 334.053 175.639 334.448 175.473C334.843 175.307 335.267 175.221 335.696 175.221C336.124 175.221 336.548 175.307 336.943 175.473C337.338 175.639 337.696 175.882 337.996 176.189" stroke="white" stroke-linecap="round" stroke-linejoin="round"/>
<path d="M331.712 174.495C332.771 173.439 334.206 172.846 335.701 172.846C337.196 172.846 338.631 173.439 339.69 174.495" stroke="white" stroke-width="1.05659" stroke-linecap="round" stroke-linejoin="round"/>
<path d="M330.114 172.929C331.59 171.456 333.589 170.629 335.674 170.629C337.759 170.629 339.759 171.456 341.234 172.929" stroke="white" stroke-linecap="round" stroke-linejoin="round"/>
<path d="M336.613 178.377C336.615 178.56 336.562 178.74 336.462 178.893C336.361 179.046 336.217 179.166 336.048 179.237C335.879 179.308 335.693 179.327 335.513 179.292C335.333 179.257 335.168 179.169 335.038 179.039C334.909 178.91 334.821 178.744 334.785 178.564C334.75 178.385 334.769 178.198 334.84 178.029C334.912 177.86 335.031 177.716 335.185 177.616C335.338 177.515 335.518 177.463 335.701 177.465C335.943 177.465 336.175 177.561 336.346 177.732C336.516 177.903 336.613 178.135 336.613 178.377V178.377Z" fill="white"/>
<path d="M301.611 83.4192H185.078C181.418 83.4192 178.45 86.3863 178.45 90.0464V156.768C178.45 160.429 181.418 163.396 185.078 163.396H301.611C305.271 163.396 308.238 160.429 308.238 156.768V90.0464C308.238 86.3863 305.271 83.4192 301.611 83.4192Z" fill="white"/>
<path d="M301.321 84.5023H185.378C182.156 84.5023 179.544 87.1141 179.544 90.3359V156.468C179.544 159.69 182.156 162.302 185.378 162.302H301.321C304.543 162.302 307.155 159.69 307.155 156.468V90.3359C307.155 87.1141 304.543 84.5023 301.321 84.5023Z" fill="white"/>
<path opacity="0.6" d="M301.321 84.5023H185.378C182.156 84.5023 179.544 87.1141 179.544 90.3359V156.468C179.544 159.69 182.156 162.302 185.378 162.302H301.321C304.543 162.302 307.155 159.69 307.155 156.468V90.3359C307.155 87.1141 304.543 84.5023 301.321 84.5023Z" fill="white"/>
<path opacity="0.2" d="M301.321 84.5023H185.378C182.156 84.5023 179.544 87.1141 179.544 90.3359V152.179C179.544 155.401 182.156 158.012 185.378 158.012H301.321C304.543 158.012 307.155 155.401 307.155 152.179V90.3359C307.155 87.1141 304.543 84.5023 301.321 84.5023Z" fill="white"/>
<path d="M288.314 90.9686H189.796C188.807 90.9686 188.005 91.7704 188.005 92.7594V101.403C188.005 102.392 188.807 103.193 189.796 103.193H288.314C289.303 103.193 290.104 102.392 290.104 101.403V92.7594C290.104 91.7704 289.303 90.9686 288.314 90.9686Z" fill="white"/>
<path d="M198.92 97.9342H196.528L195.991 99.4246H195.214L197.395 93.7141H198.053L200.238 99.4246H199.465L198.92 97.9342ZM196.755 97.3145H198.697L197.724 94.6437L196.755 97.3145ZM201.979 93.7141L203.846 98.3735L205.713 93.7141H206.69V99.4246H205.937V97.2008L206.007 94.8005L204.133 99.4246H203.556L201.685 94.8123L201.76 97.2008V99.4246H201.007V93.7141H201.979ZM208.772 97.189V99.4246H208.019V93.7141H210.125C210.75 93.7141 211.239 93.8736 211.592 94.1926C211.948 94.5116 212.126 94.9339 212.126 95.4594C212.126 96.0137 211.952 96.4412 211.604 96.7419C211.259 97.04 210.763 97.189 210.118 97.189H208.772ZM208.772 96.5733H210.125C210.528 96.5733 210.837 96.4792 211.051 96.2909C211.265 96.1 211.373 95.8255 211.373 95.4673C211.373 95.1274 211.265 94.8554 211.051 94.6515C210.837 94.4476 210.542 94.3417 210.169 94.3338H208.772V96.5733Z" fill="white"/>
<path opacity="0.3" d="M288.314 90.9686H189.796C188.807 90.9686 188.005 91.7704 188.005 92.7594V101.403C188.005 102.392 188.807 103.193 189.796 103.193H288.314C289.303 103.193 290.104 102.392 290.104 101.403V92.7594C290.104 91.7704 289.303 90.9686 288.314 90.9686Z" fill="white"/>
<path d="M288.314 106.368H189.796C188.807 106.368 188.005 107.169 188.005 108.158V116.802C188.005 117.791 188.807 118.593 189.796 118.593H288.314C289.303 118.593 290.104 117.791 290.104 116.802V108.158C290.104 107.169 289.303 106.368 288.314 106.368Z" fill="white"/>
<path d="M194.974 113.344H192.582L192.044 114.834H191.268L193.448 109.124H194.107L196.292 114.834H195.519L194.974 113.344ZM192.809 112.724H194.75L193.778 110.053L192.809 112.724ZM197.868 114.834H197.115V109.124H197.868V114.834ZM201.343 112.524H200.002V114.834H199.245V109.124H201.135C201.779 109.124 202.273 109.27 202.618 109.563C202.966 109.856 203.14 110.282 203.14 110.842C203.14 111.197 203.043 111.507 202.849 111.771C202.658 112.035 202.392 112.233 202.049 112.363L203.391 114.787V114.834H202.583L201.343 112.524ZM200.002 111.909H201.159C201.533 111.909 201.83 111.812 202.049 111.618C202.272 111.425 202.383 111.166 202.383 110.842C202.383 110.489 202.277 110.218 202.065 110.03C201.856 109.842 201.552 109.746 201.155 109.744H200.002V111.909ZM210.391 113.022C210.321 113.626 210.097 114.093 209.721 114.423C209.347 114.749 208.849 114.913 208.226 114.913C207.552 114.913 207.011 114.671 206.603 114.187C206.197 113.704 205.995 113.056 205.995 112.246V111.697C205.995 111.166 206.089 110.699 206.277 110.297C206.468 109.894 206.737 109.585 207.085 109.371C207.433 109.154 207.836 109.045 208.293 109.045C208.9 109.045 209.386 109.215 209.752 109.555C210.118 109.893 210.331 110.361 210.391 110.959H209.634C209.569 110.504 209.427 110.175 209.207 109.971C208.99 109.767 208.685 109.665 208.293 109.665C207.812 109.665 207.434 109.843 207.16 110.199C206.888 110.554 206.752 111.06 206.752 111.716V112.269C206.752 112.889 206.881 113.382 207.14 113.748C207.399 114.114 207.761 114.297 208.226 114.297C208.645 114.297 208.965 114.203 209.187 114.015C209.412 113.824 209.561 113.493 209.634 113.022H210.391ZM215.815 112.163C215.815 112.723 215.721 113.212 215.533 113.63C215.345 114.046 215.078 114.364 214.733 114.583C214.388 114.803 213.985 114.913 213.525 114.913C213.075 114.913 212.677 114.803 212.329 114.583C211.981 114.361 211.71 114.046 211.517 113.638C211.326 113.228 211.228 112.753 211.223 112.214V111.803C211.223 111.254 211.318 110.769 211.509 110.348C211.7 109.927 211.969 109.605 212.317 109.383C212.667 109.158 213.067 109.045 213.517 109.045C213.975 109.045 214.377 109.157 214.725 109.379C215.076 109.598 215.345 109.919 215.533 110.34C215.721 110.758 215.815 111.246 215.815 111.803V112.163ZM215.066 111.795C215.066 111.118 214.93 110.599 214.658 110.238C214.387 109.874 214.006 109.693 213.517 109.693C213.041 109.693 212.666 109.874 212.392 110.238C212.12 110.599 211.98 111.101 211.972 111.744V112.163C211.972 112.82 212.109 113.336 212.384 113.713C212.661 114.087 213.041 114.274 213.525 114.274C214.011 114.274 214.388 114.097 214.655 113.744C214.921 113.388 215.059 112.88 215.066 112.218V111.795ZM221.334 114.834H220.577L217.702 110.434V114.834H216.945V109.124H217.702L220.585 113.544V109.124H221.334V114.834ZM222.671 114.834V109.124H224.283C224.78 109.124 225.219 109.234 225.601 109.453C225.983 109.673 226.277 109.985 226.483 110.391C226.692 110.796 226.798 111.261 226.801 111.787V112.152C226.801 112.69 226.696 113.162 226.487 113.568C226.281 113.973 225.984 114.284 225.597 114.501C225.213 114.718 224.764 114.829 224.252 114.834H222.671ZM223.424 109.744V114.219H224.216C224.797 114.219 225.248 114.038 225.569 113.677C225.894 113.317 226.056 112.803 226.056 112.136V111.803C226.056 111.154 225.903 110.651 225.597 110.293C225.294 109.932 224.862 109.749 224.303 109.744H223.424ZM228.75 114.834H227.997V109.124H228.75V114.834ZM233.959 109.744H232.123V114.834H231.374V109.744H229.542V109.124H233.959V109.744ZM235.614 114.834H234.861V109.124H235.614V114.834ZM236.688 112.673C236.688 112.258 236.769 111.884 236.931 111.552C237.096 111.22 237.324 110.963 237.614 110.783C237.907 110.603 238.24 110.512 238.614 110.512C239.192 110.512 239.659 110.712 240.014 111.112C240.372 111.512 240.552 112.045 240.552 112.709V112.76C240.552 113.173 240.472 113.544 240.312 113.873C240.155 114.2 239.929 114.455 239.634 114.638C239.341 114.821 239.004 114.913 238.622 114.913C238.047 114.913 237.58 114.713 237.222 114.313C236.866 113.913 236.688 113.383 236.688 112.724V112.673ZM237.418 112.76C237.418 113.23 237.526 113.608 237.743 113.893C237.963 114.178 238.256 114.321 238.622 114.321C238.991 114.321 239.283 114.177 239.5 113.889C239.717 113.599 239.826 113.194 239.826 112.673C239.826 112.208 239.715 111.831 239.493 111.544C239.273 111.254 238.98 111.108 238.614 111.108C238.256 111.108 237.967 111.251 237.747 111.536C237.528 111.821 237.418 112.229 237.418 112.76ZM245.964 114.834H245.207L242.332 110.434V114.834H241.575V109.124H242.332L245.215 113.544V109.124H245.964V114.834ZM250.529 112.195H248.054V114.219H250.929V114.834H247.301V109.124H250.89V109.744H248.054V111.579H250.529V112.195ZM253.961 112.524H252.619V114.834H251.863V109.124H253.753C254.396 109.124 254.89 109.27 255.235 109.563C255.583 109.856 255.757 110.282 255.757 110.842C255.757 111.197 255.66 111.507 255.467 111.771C255.276 112.035 255.009 112.233 254.667 112.363L256.008 114.787V114.834H255.2L253.961 112.524ZM252.619 111.909H253.776C254.15 111.909 254.447 111.812 254.667 111.618C254.889 111.425 255 111.166 255 110.842C255 110.489 254.894 110.218 254.682 110.03C254.473 109.842 254.17 109.746 253.773 109.744H252.619V111.909Z" fill="white"/>
<path opacity="0.3" d="M288.314 106.368H189.796C188.807 106.368 188.005 107.169 188.005 108.158V116.802C188.005 117.791 188.807 118.593 189.796 118.593H288.314C289.303 118.593 290.104 117.791 290.104 116.802V108.158C290.104 107.169 289.303 106.368 288.314 106.368Z" fill="white"/>
<path d="M288.314 121.777H189.796C188.807 121.777 188.005 122.579 188.005 123.568V132.211C188.005 133.201 188.807 134.002 189.796 134.002H288.314C289.303 134.002 290.104 133.201 290.104 132.211V123.568C290.104 122.579 289.303 121.777 288.314 121.777Z" fill="white"/>
<path d="M192.793 124.523L194.66 129.182L196.527 124.523H197.504V130.233H196.751V128.01L196.821 125.609L194.947 130.233H194.37L192.499 125.621L192.574 128.01V130.233H191.821V124.523H192.793ZM202.853 124.523V128.406C202.851 128.944 202.681 129.385 202.343 129.727C202.009 130.07 201.554 130.262 200.979 130.304L200.779 130.312C200.154 130.312 199.656 130.143 199.284 129.806C198.913 129.469 198.725 129.005 198.719 128.414V124.523H199.465V128.39C199.465 128.803 199.578 129.125 199.806 129.355C200.033 129.582 200.358 129.696 200.779 129.696C201.205 129.696 201.53 129.582 201.755 129.355C201.983 129.127 202.096 128.807 202.096 128.394V124.523H202.853ZM205.724 127.688C205.078 127.502 204.608 127.275 204.312 127.006C204.019 126.734 203.873 126.399 203.873 126.002C203.873 125.552 204.052 125.181 204.41 124.888C204.771 124.592 205.239 124.445 205.814 124.445C206.207 124.445 206.556 124.52 206.862 124.672C207.17 124.824 207.408 125.033 207.575 125.3C207.745 125.566 207.83 125.858 207.83 126.174H207.073C207.073 125.829 206.964 125.558 206.744 125.362C206.524 125.164 206.214 125.064 205.814 125.064C205.443 125.064 205.153 125.147 204.944 125.311C204.737 125.473 204.634 125.7 204.634 125.99C204.634 126.223 204.732 126.42 204.928 126.582C205.127 126.742 205.463 126.888 205.936 127.021C206.412 127.155 206.783 127.302 207.05 127.464C207.319 127.624 207.518 127.811 207.646 128.025C207.777 128.24 207.842 128.492 207.842 128.782C207.842 129.245 207.662 129.616 207.301 129.896C206.94 130.173 206.458 130.312 205.854 130.312C205.461 130.312 205.095 130.237 204.755 130.088C204.416 129.937 204.153 129.73 203.967 129.469C203.784 129.207 203.693 128.91 203.693 128.578H204.45C204.45 128.923 204.576 129.197 204.83 129.398C205.086 129.597 205.427 129.696 205.854 129.696C206.251 129.696 206.556 129.615 206.767 129.453C206.979 129.291 207.085 129.07 207.085 128.79C207.085 128.51 206.987 128.295 206.791 128.143C206.595 127.989 206.239 127.837 205.724 127.688ZM209.619 130.233H208.866V124.523H209.619V130.233ZM215.2 128.421C215.129 129.025 214.906 129.492 214.529 129.822C214.155 130.148 213.657 130.312 213.035 130.312C212.36 130.312 211.819 130.07 211.411 129.586C211.006 129.103 210.803 128.455 210.803 127.645V127.096C210.803 126.565 210.897 126.098 211.086 125.696C211.276 125.293 211.546 124.984 211.893 124.77C212.241 124.553 212.644 124.445 213.101 124.445C213.708 124.445 214.194 124.615 214.56 124.954C214.926 125.292 215.14 125.76 215.2 126.358H214.443C214.377 125.904 214.235 125.574 214.015 125.37C213.798 125.166 213.494 125.064 213.101 125.064C212.62 125.064 212.243 125.242 211.968 125.598C211.696 125.953 211.56 126.459 211.56 127.115V127.668C211.56 128.288 211.69 128.781 211.948 129.147C212.207 129.513 212.569 129.696 213.035 129.696C213.453 129.696 213.773 129.602 213.996 129.414C214.221 129.223 214.37 128.892 214.443 128.421H215.2Z" fill="white"/>
<path opacity="0.3" d="M288.314 121.777H189.796C188.807 121.777 188.005 122.579 188.005 123.568V132.211C188.005 133.201 188.807 134.002 189.796 134.002H288.314C289.303 134.002 290.104 133.201 290.104 132.211V123.568C290.104 122.579 289.303 121.777 288.314 121.777Z" fill="white"/>
<path d="M288.314 137.176H189.796C188.807 137.176 188.005 137.978 188.005 138.967V147.611C188.005 148.6 188.807 149.401 189.796 149.401H288.314C289.303 149.401 290.104 148.6 290.104 147.611V138.967C290.104 137.978 289.303 137.176 288.314 137.176Z" fill="white"/>
<path d="M195.766 140.552H193.931V145.643H193.182V140.552H191.35V139.933H195.766V140.552ZM198.567 144.643L200.198 139.933H201.022L198.904 145.643H198.237L196.123 139.933H196.943L198.567 144.643Z" fill="white"/>
<path opacity="0.3" d="M288.314 137.176H189.796C188.807 137.176 188.005 137.978 188.005 138.967V147.611C188.005 148.6 188.807 149.401 189.796 149.401H288.314C289.303 149.401 290.104 148.6 290.104 147.611V138.967C290.104 137.978 289.303 137.176 288.314 137.176Z" fill="white"/>
<path d="M285.911 92.8238H270.352C269.416 92.8238 268.657 93.5823 268.657 94.5181V99.6332C268.657 100.569 269.416 101.328 270.352 101.328H285.911C286.847 101.328 287.606 100.569 287.606 99.6332V94.5181C287.606 93.5823 286.847 92.8238 285.911 92.8238Z" fill="#263238"/>
<path opacity="0.5" d="M275.177 92.8238H270.352C269.416 92.8238 268.657 93.5823 268.657 94.5181V99.6332C268.657 100.569 269.416 101.328 270.352 101.328H275.177C276.113 101.328 276.871 100.569 276.871 99.6332V94.5181C276.871 93.5823 276.113 92.8238 275.177 92.8238Z" fill="white"/>
<path opacity="0.5" d="M285.911 92.8238H270.352C269.416 92.8238 268.657 93.5823 268.657 94.5181V99.6332C268.657 100.569 269.416 101.328 270.352 101.328H285.911C286.847 101.328 287.606 100.569 287.606 99.6332V94.5181C287.606 93.5823 286.847 92.8238 285.911 92.8238Z" fill="white"/>
<path d="M285.911 138.967H270.352C269.416 138.967 268.657 139.726 268.657 140.662V145.777C268.657 146.713 269.416 147.471 270.352 147.471H285.911C286.847 147.471 287.606 146.713 287.606 145.777V140.662C287.606 139.726 286.847 138.967 285.911 138.967Z" fill="#263238"/>
<path opacity="0.5" d="M275.177 138.967H270.352C269.416 138.967 268.657 139.726 268.657 140.662V145.777C268.657 146.713 269.416 147.471 270.352 147.471H275.177C276.113 147.471 276.871 146.713 276.871 145.777V140.662C276.871 139.726 276.113 138.967 275.177 138.967Z" fill="white"/>
<path opacity="0.5" d="M285.911 138.967H270.352C269.416 138.967 268.657 139.726 268.657 140.662V145.777C268.657 146.713 269.416 147.471 270.352 147.471H285.911C286.847 147.471 287.606 146.713 287.606 145.777V140.662C287.606 139.726 286.847 138.967 285.911 138.967Z" fill="white"/>
<path d="M285.911 123.579H270.352C269.416 123.579 268.657 124.338 268.657 125.273V130.388C268.657 131.324 269.416 132.083 270.352 132.083H285.911C286.847 132.083 287.606 131.324 287.606 130.388V125.273C287.606 124.338 286.847 123.579 285.911 123.579Z" fill="white"/>
<path opacity="0.5" d="M285.911 123.579H281.086C280.15 123.579 279.392 124.338 279.392 125.273V130.388C279.392 131.324 280.15 132.083 281.086 132.083H285.911C286.847 132.083 287.606 131.324 287.606 130.388V125.273C287.606 124.338 286.847 123.579 285.911 123.579Z" fill="white"/>
<path d="M285.911 108.201H270.352C269.416 108.201 268.657 108.96 268.657 109.896V115.011C268.657 115.947 269.416 116.705 270.352 116.705H285.911C286.847 116.705 287.606 115.947 287.606 115.011V109.896C287.606 108.96 286.847 108.201 285.911 108.201Z" fill="white"/>
<path opacity="0.5" d="M285.911 108.201H281.086C280.15 108.201 279.392 108.96 279.392 109.896V115.011C279.392 115.947 280.15 116.705 281.086 116.705H285.911C286.847 116.705 287.606 115.947 287.606 115.011V109.896C287.606 108.96 286.847 108.201 285.911 108.201Z" fill="white"/>
<path d="M290.104 162.055V153.991C290.106 153.756 290.061 153.524 289.972 153.307C289.883 153.089 289.752 152.892 289.587 152.725C289.421 152.559 289.225 152.427 289.008 152.337C288.791 152.247 288.559 152.2 288.324 152.2H189.796C189.321 152.2 188.866 152.389 188.53 152.725C188.194 153.061 188.005 153.516 188.005 153.991V162.055H290.104Z" fill="white"/>
<path d="M269.226 162.055H287.037C287.215 161.898 287.358 161.705 287.456 161.489C287.554 161.272 287.605 161.038 287.606 160.801V155.675C287.606 155.453 287.562 155.233 287.477 155.028C287.391 154.823 287.266 154.637 287.109 154.48C286.951 154.324 286.765 154.2 286.559 154.116C286.354 154.032 286.133 153.99 285.911 153.991H270.352C270.13 153.99 269.909 154.032 269.704 154.116C269.498 154.2 269.312 154.324 269.154 154.48C268.997 154.637 268.872 154.823 268.786 155.028C268.701 155.233 268.657 155.453 268.657 155.675V160.801C268.658 161.038 268.709 161.272 268.807 161.489C268.905 161.705 269.048 161.898 269.226 162.055V162.055Z" fill="#263238"/>
<path opacity="0.5" d="M269.226 162.055H276.314C276.49 161.897 276.631 161.704 276.727 161.488C276.823 161.271 276.873 161.037 276.871 160.801V155.675C276.871 155.453 276.828 155.233 276.742 155.028C276.657 154.823 276.532 154.637 276.375 154.48C276.217 154.324 276.03 154.2 275.825 154.116C275.619 154.032 275.399 153.99 275.177 153.991H270.352C270.13 153.99 269.909 154.032 269.704 154.116C269.498 154.2 269.312 154.324 269.154 154.48C268.997 154.637 268.872 154.823 268.786 155.028C268.701 155.233 268.657 155.453 268.657 155.675V160.801C268.658 161.038 268.709 161.272 268.807 161.489C268.905 161.705 269.048 161.898 269.226 162.055V162.055Z" fill="white"/>
<path opacity="0.5" d="M269.226 162.055H287.037C287.215 161.898 287.358 161.705 287.456 161.489C287.554 161.272 287.605 161.038 287.606 160.801V155.675C287.606 155.453 287.562 155.233 287.477 155.028C287.391 154.823 287.266 154.637 287.109 154.48C286.951 154.324 286.765 154.2 286.559 154.116C286.354 154.032 286.133 153.99 285.911 153.991H270.352C270.13 153.99 269.909 154.032 269.704 154.116C269.498 154.2 269.312 154.324 269.154 154.48C268.997 154.637 268.872 154.823 268.786 155.028C268.701 155.233 268.657 155.453 268.657 155.675V160.801C268.658 161.038 268.709 161.272 268.807 161.489C268.905 161.705 269.048 161.898 269.226 162.055V162.055Z" fill="white"/>
<path opacity="0.2" d="M297.547 158.313C296.941 158.313 296.36 158.072 295.931 157.644C295.503 157.215 295.262 156.634 295.262 156.029V93.242C295.262 92.9425 295.322 92.646 295.436 92.3695C295.551 92.093 295.72 91.8419 295.932 91.6306C296.144 91.4194 296.396 91.2522 296.673 91.1385C296.95 91.0249 297.247 90.9672 297.547 90.9686V90.9686C298.149 90.9686 298.728 91.2081 299.154 91.6344C299.58 92.0608 299.82 92.639 299.82 93.242V156.029C299.821 156.328 299.764 156.625 299.65 156.902C299.536 157.179 299.369 157.431 299.158 157.643C298.947 157.855 298.696 158.024 298.419 158.139C298.142 158.254 297.846 158.313 297.547 158.313V158.313Z" fill="black"/>
<path d="M297.547 115.386C297.247 115.388 296.95 115.33 296.673 115.216C296.396 115.103 296.144 114.935 295.932 114.724C295.72 114.513 295.551 114.262 295.436 113.985C295.322 113.709 295.262 113.412 295.262 113.113V93.242C295.262 92.9425 295.322 92.646 295.436 92.3695C295.551 92.093 295.72 91.8419 295.932 91.6306C296.144 91.4194 296.396 91.2522 296.673 91.1385C296.95 91.0249 297.247 90.9672 297.547 90.9686V90.9686C298.149 90.9686 298.728 91.2081 299.154 91.6344C299.58 92.0608 299.82 92.639 299.82 93.242V113.113C299.82 113.716 299.58 114.294 299.154 114.72C298.728 115.147 298.149 115.386 297.547 115.386V115.386Z" fill="white"/>
<path d="M241.645 162.859V166.077" stroke="white" stroke-linecap="round" stroke-linejoin="round"/>
<path d="M241.645 168.221V183.234" stroke="white" stroke-linecap="round" stroke-linejoin="round" stroke-dasharray="5 2"/>
<path d="M241.645 184.307V186.988H244.325" stroke="white" stroke-linecap="round" stroke-linejoin="round"/>
<path d="M246.47 186.988H320.463" stroke="white" stroke-linecap="round" stroke-linejoin="round" stroke-dasharray="5 2"/>
<path d="M321.535 186.988H324.752" stroke="white" stroke-linecap="round" stroke-linejoin="round"/>
<path d="M326.339 188.221C327.02 188.221 327.573 187.669 327.573 186.988C327.573 186.306 327.02 185.754 326.339 185.754C325.658 185.754 325.106 186.306 325.106 186.988C325.106 187.669 325.658 188.221 326.339 188.221Z" fill="white"/>
</svg>
